<svg id="Layer_3" enable-background="new 0 0 64 64" height="512" viewBox="0 0 64 64" width="512" xmlns="http://www.w3.org/2000/svg"><g><g><path d="m26 52h12v6h-12z" fill="#625d51"/></g><g><path d="m40 62h-16c-1.105 0-2-.895-2-2 0-1.105.895-2 2-2h16c1.105 0 2 .895 2 2 0 1.105-.895 2-2 2z" fill="#cbc3b6"/></g><g><path d="m59 52h-54c-1.657 0-3-1.343-3-3 0-1.657 1.343-3 3-3h54c1.657 0 3 1.343 3 3 0 1.657-1.343 3-3 3z" fill="#cbc3b6"/></g><g><path d="m15.836 40.001c1.492 1.701 3.366 3.086 5.531 4.014l4.633 1.985h12l4.632-1.985c5.683-2.436 9.368-8.024 9.368-14.207 0-5.987-3.458-11.436-8.875-13.985l-5.935-2.793c-1.337-.628-2.19-1.973-2.19-3.45 0-1.011.402-1.982 1.117-2.697l4.883-4.883h-18l4.883 4.883c.715.715 1.117 1.685 1.117 2.697 0 1.477-.853 2.822-2.19 3.451l-5.935 2.793c-2.117.996-3.934 2.435-5.363 4.175z" fill="#9e845f"/></g><g><path d="m33 12.183c0-3.705-.986-7.175-2.692-10.183h-7.308l4.883 4.883c.715.715 1.117 1.685 1.117 2.697 0 1.477-.853 2.822-2.19 3.451l-5.935 2.793c-2.117.996-3.934 2.435-5.363 4.175l.204 12.571c9.802-1.628 17.284-10.123 17.284-20.387z" fill="#c1a072"/></g><g><path d="m2 24h7v12h-7z" fill="#243242"/></g><g><g><path d="m33 36c1.105 0 2 .895 2 2 0 1.105-.895 2-2 2h-20l-4-4v-12l4-4h11c1.105 0 2 .895 2 2 0 1.105-.895 2-2 2h11c1.105 0 2 .895 2 2 0 1.105-.895 2-2 2h4c1.105 0 2 .895 2 2 0 1.105-.895 2-2 2h-2c1.105 0 2 .895 2 2 0 1.105-.895 2-2 2z" fill="#fadfb2"/></g></g><g><g><path d="m35 29v-2c.551 0 1-.448 1-1s-.449-1-1-1h-14v-2h14c1.654 0 3 1.346 3 3s-1.346 3-3 3z"/></g><g><path d="m33 41h-20c-.265 0-.52-.105-.707-.293l-4-4c-.188-.187-.293-.441-.293-.707v-12c0-.266.105-.52.293-.707l4-4c.187-.188.442-.293.707-.293h11c1.654 0 3 1.346 3 3s-1.346 3-3 3v-2c.551 0 1-.448 1-1s-.449-1-1-1h-10.586l-3.414 3.414v11.172l3.414 3.414h19.586c.551 0 1-.448 1-1s-.449-1-1-1v-2c1.654 0 3 1.346 3 3s-1.346 3-3 3z"/></g><g><path d="m39 33h-14v-2h14c.551 0 1-.448 1-1s-.449-1-1-1h-14v-2h14c1.654 0 3 1.346 3 3s-1.346 3-3 3z"/></g></g><g><path d="m37 37h-12v-2h12c.551 0 1-.448 1-1s-.449-1-1-1v-2c1.654 0 3 1.346 3 3s-1.346 3-3 3z"/></g><g><path d="m9 37h-7c-.552 0-1-.447-1-1v-12c0-.553.448-1 1-1h7v2h-6v10h6z"/></g><g><path d="m38 47h-12c-.135 0-.27-.027-.394-.081l-4.632-1.985c-2.276-.976-4.258-2.413-5.889-4.273l1.504-1.318c1.433 1.634 3.173 2.896 5.173 3.754l4.443 1.903h11.59l4.443-1.904c5.323-2.282 8.762-7.497 8.762-13.287 0-5.573-3.258-10.707-8.301-13.08l-5.935-2.793c-1.679-.79-2.764-2.5-2.764-4.356 0-1.285.5-2.494 1.41-3.404l3.176-3.176h-13.172l3.176 3.176c.91.91 1.41 2.119 1.41 3.404 0 1.855-1.085 3.565-2.764 4.355l-5.935 2.793c-1.956.92-3.644 2.234-5.016 3.905l-1.546-1.27c1.562-1.902 3.483-3.397 5.71-4.446l5.935-2.793c.982-.46 1.616-1.459 1.616-2.544 0-.751-.293-1.458-.825-1.99l-4.882-4.883c-.286-.286-.372-.716-.217-1.09s.52-.617.924-.617h18c.404 0 .769.243.924.617s.069.804-.217 1.09l-4.883 4.883c-.531.532-.824 1.239-.824 1.99 0 1.085.634 2.084 1.616 2.545l5.935 2.793c5.74 2.702 9.449 8.547 9.449 14.891 0 6.592-3.915 12.528-9.974 15.125l-4.632 1.985c-.124.054-.259.081-.394.081z"/></g><g><path d="m59 53h-54c-2.206 0-4-1.794-4-4s1.794-4 4-4h54c2.206 0 4 1.794 4 4s-1.794 4-4 4zm-54-6c-1.103 0-2 .897-2 2s.897 2 2 2h54c1.103 0 2-.897 2-2s-.897-2-2-2z"/></g><g><path d="m40 63h-16c-1.654 0-3-1.346-3-3s1.346-3 3-3h16c1.654 0 3 1.346 3 3s-1.346 3-3 3zm-16-4c-.551 0-1 .448-1 1s.449 1 1 1h16c.551 0 1-.448 1-1s-.449-1-1-1z"/></g><g><path d="m25 52h2v6h-2z"/></g><g><path d="m37 52h2v6h-2z"/></g></g></svg>