<?xml version="1.0" standalone="yes"?>
<svg width="624" height="425">
<path style="fill:#ffffff; stroke:none;" d="M0 0L0 425L624 425L624 0L0 0z"/>
<path style="fill:#a2a2a2; stroke:none;" d="M241 140L242 141L241 140z"/>
<path style="fill:#000000; stroke:none;" d="M293 223C288.452 227.928 282.356 233.96 281.449 241C280.871 245.488 286.016 251.742 290.895 249.783C299.89 246.171 295.933 230.149 303.225 224.603C306.144 222.383 310.552 222.956 314 223.004C325.953 223.17 323.95 238.824 332.87 245.616C348.792 257.74 377.946 254.774 396 249.569C403.058 247.534 417.401 239.596 411.82 230.149C407.337 222.56 394.877 237.568 390 240.03C370.652 249.797 335.216 252.126 331 224L397 226L396 223C380.749 223.757 364.344 219.89 349 219.035C343.26 218.716 333.015 219.558 328.224 216.142C323.954 213.098 318.56 202.201 318.062 197C317.694 193.154 322.793 184.553 315.811 183.427C303.602 181.457 303.336 204.431 298.717 210.852C295.744 214.985 290.478 214.026 286 213.804C276.619 213.34 262.071 214.786 254.318 208.121C251.107 205.361 251.584 198.912 251.166 195C250.359 187.457 248.359 177.469 249.668 170C250.414 165.743 253.46 162.436 253.895 158C254.52 151.631 253.8 142.209 245.996 140.728C237.117 139.044 236.933 147.651 237.004 154C237.175 169.391 242.438 184.688 241.977 199.996C241.795 206.033 234.262 211.588 238.028 217.772C240.703 222.164 247.669 221 252 221C265.865 221 279.216 221.591 293 223z"/>
<path style="fill:#424242; stroke:none;" d="M243 140L243 141L246 141L243 140z"/>
<path style="fill:#777777; stroke:none;" d="M249 141L250 142L249 141z"/>
<path style="fill:#a2a2a2; stroke:none;" d="M250 142L251 143L250 142z"/>
<path style="fill:#8d8d8d; stroke:none;" d="M251 143L252 144L251 143z"/>
<path style="fill:#69696a; stroke:none;" d="M252 145L253 146L252 145z"/>
<path style="fill:#979797; stroke:none;" d="M253 147L254 148L253 147z"/>
<path style="fill:#909090; stroke:none;" d="M254 152L254 157L255 157L254 152z"/>
<path style="fill:#363636; stroke:none;" d="M237 160L237 164L238 164L237 160z"/>
<path style="fill:#5c5c5c; stroke:none;" d="M252.333 163.667L252.667 164.333L252.333 163.667z"/>
<path style="fill:#787878; stroke:none;" d="M251.333 165.667L251.667 166.333L251.333 165.667z"/>
<path style="fill:#a2a2a2; stroke:none;" d="M250 167L251 168L250 167z"/>
<path style="fill:#9e9e9e; stroke:none;" d="M238.333 172.667L238.667 173.333L238.333 172.667z"/>
<path style="fill:#4b4a4b; stroke:none;" d="M239 177L239 180L240 180L239 177z"/>
<path style="fill:#8e8e8e; stroke:none;" d="M250 180L250 183L251 183L250 180z"/>
<path style="fill:#949494; stroke:none;" d="M312 183L313 184L312 183z"/>
<path style="fill:#444444; stroke:none;" d="M250 184L250 189L251 189L250 184z"/>
<path style="fill:#959495; stroke:none;" d="M310 184L311 185L310 184z"/>
<path style="fill:#818181; stroke:none;" d="M318 184L319 185L318 184z"/>
<path style="fill:#575757; stroke:none;" d="M309 185L310 186L309 185z"/>
<path style="fill:#969696; stroke:none;" d="M319 185L320 186L319 185z"/>
<path style="fill:#797979; stroke:none;" d="M240 186L241 187L240 186z"/>
<path style="fill:#585858; stroke:none;" d="M308 186L309 187L308 186z"/>
<path style="fill:#7d7d7d; stroke:none;" d="M307 187L308 188L307 187z"/>
<path style="fill:#434343; stroke:none;" d="M320 187L320 190L321 190L320 187z"/>
<path style="fill:#606060; stroke:none;" d="M306.333 188.667L306.667 189.333L306.333 188.667M319 191L320 192L319 191z"/>
<path style="fill:#595959; stroke:none;" d="M241 193L241 206L242 206L241 193z"/>
<path style="fill:#6c6c6d; stroke:none;" d="M304.333 193.667L304.667 194.333L304.333 193.667z"/>
<path style="fill:#7f7f7f; stroke:none;" d="M318 193L319 194L318 193z"/>
<path style="fill:#7a7a7a; stroke:none;" d="M317 194L318 195L317 194z"/>
<path style="fill:#868686; stroke:none;" d="M318 199L319 200L318 199z"/>
<path style="fill:#636363; stroke:none;" d="M302.333 200.667L302.667 201.333L302.333 200.667z"/>
<path style="fill:#5b5b5b; stroke:none;" d="M311 201L312 202L311 201z"/>
<path style="fill:#828282; stroke:none;" d="M319 201L320 202L319 201z"/>
<path style="fill:#ffffff; stroke:none;" d="M311 202L307 215L317 216L311 202z"/>
<path style="fill:#666666; stroke:none;" d="M310.333 203.667L310.667 204.333L310.333 203.667z"/>
<path style="fill:#7b7b7b; stroke:none;" d="M312 203L313 204L312 203z"/>
<path style="fill:#989898; stroke:none;" d="M320 203L321 204L320 203z"/>
<path style="fill:#909090; stroke:none;" d="M301 204L302 205L301 204z"/>
<path style="fill:#858585; stroke:none;" d="M313 205L314 206L313 205z"/>
<path style="fill:#8f8f8f; stroke:none;" d="M321 205L322 206L321 205z"/>
<path style="fill:#787878; stroke:none;" d="M239 206L240 207L239 206z"/>
<path style="fill:#919191; stroke:none;" d="M309 206L310 207L309 206z"/>
<path style="fill:#6f6f6f; stroke:none;" d="M238.333 207.667L238.667 208.333L238.333 207.667z"/>
<path style="fill:#777777; stroke:none;" d="M252 207L253 208L252 207z"/>
<path style="fill:#343434; stroke:none;" d="M300.333 207.667L300.667 208.333L300.333 207.667z"/>
<path style="fill:#717071; stroke:none;" d="M322 207L323 208L322 207z"/>
<path style="fill:#a0a0a0; stroke:none;" d="M254 208L255 209L254 208z"/>
<path style="fill:#747474; stroke:none;" d="M308 208L309 209L308 208z"/>
<path style="fill:#777777; stroke:none;" d="M314 208L315 209L314 208z"/>
<path style="fill:#414141; stroke:none;" d="M255.667 209.333L256.333 209.667L255.667 209.333z"/>
<path style="fill:#939393; stroke:none;" d="M299 209L300 210L299 209z"/>
<path style="fill:#9e9e9e; stroke:none;" d="M323 209L324 210L323 209z"/>
<path style="fill:#a5a5a5; stroke:none;" d="M298 211L299 212L298 211z"/>
<path style="fill:#636363; stroke:none;" d="M266 212L266 213L272 213L266 212z"/>
<path style="fill:#404040; stroke:none;" d="M297.333 212.667L297.667 213.333L297.333 212.667z"/>
<path style="fill:#4f4f50; stroke:none;" d="M306.333 212.667L306.667 213.333L306.333 212.667z"/>
<path style="fill:#2b2b2b; stroke:none;" d="M274 213L274 214L283 214L274 213z"/>
<path style="fill:#444444; stroke:none;" d="M284 213L284 214L288 214L284 213z"/>
<path style="fill:#979797; stroke:none;" d="M288 213L288 214L292 214L288 213z"/>
<path style="fill:#484848; stroke:none;" d="M316.333 213.667L316.667 214.333L316.333 213.667z"/>
<path style="fill:#888888; stroke:none;" d="M325 213L326 214L325 213z"/>
<path style="fill:#969697; stroke:none;" d="M309 215L309 216L312 216L309 215z"/>
<path style="fill:#636263; stroke:none;" d="M317 215L318 216L317 215z"/>
<path style="fill:#797879; stroke:none;" d="M326 215L327 216L326 215z"/>
<path style="fill:#454545; stroke:none;" d="M313 216L313 217L317 217L313 216z"/>
<path style="fill:#908f90; stroke:none;" d="M330.667 217.333L331.333 217.667L330.667 217.333z"/>
<path style="fill:#9c9c9c; stroke:none;" d="M342 218L342 219L345 219L342 218z"/>
<path style="fill:#6e6e6e; stroke:none;" d="M238 219L239 220L238 219z"/>
<path style="fill:#616161; stroke:none;" d="M353 219L353 220L364 220L353 219z"/>
<path style="fill:#494949; stroke:none;" d="M239.667 220.333L240.333 220.667L239.667 220.333z"/>
<path style="fill:#262626; stroke:none;" d="M364 220L364 221L368 221L364 220z"/>
<path style="fill:#959495; stroke:none;" d="M370 220L370 221L373 221L370 220z"/>
<path style="fill:#8e8d8e; stroke:none;" d="M276 221L276 222L280 222L276 221z"/>
<path style="fill:#6b6b6b; stroke:none;" d="M286.667 222.333L287.333 222.667L286.667 222.333z"/>
<path style="fill:#383838; stroke:none;" d="M289.667 222.333L290.333 222.667L289.667 222.333z"/>
<path style="fill:#777777; stroke:none;" d="M387 222L387 223L392 223L387 222z"/>
<path style="fill:#9b9b9b; stroke:none;" d="M292 223L293 224L292 223z"/>
<path style="fill:#6f6f6f; stroke:none;" d="M303 223L304 224L303 223z"/>
<path style="fill:#dcdcdc; stroke:none;" d="M306 223L306 224L319 224L306 223z"/>
<path style="fill:#8f8f8f; stroke:none;" d="M319.667 223.333L320.333 223.667L319.667 223.333z"/>
<path style="fill:#404040; stroke:none;" d="M393.667 223.333L394.333 223.667L393.667 223.333z"/>
<path style="fill:#767676; stroke:none;" d="M396 223L397 224L396 223z"/>
<path style="fill:#989898; stroke:none;" d="M291 224L292 225L291 224z"/>
<path style="fill:#7e7e7e; stroke:none;" d="M302 224L303 225L302 224z"/>
<path style="fill:#dfdfdf; stroke:none;" d="M331 226L355 225C350.227 222.997 334.527 221.964 331 226z"/>
<path style="fill:#898889; stroke:none;" d="M355 224L355 225L360 225L355 224z"/>
<path style="fill:#b8b9b9; stroke:none;" d="M397 226L400 225L397 226z"/>
<path style="fill:#878787; stroke:none;" d="M290 225L291 226L290 225z"/>
<path style="fill:#737373; stroke:none;" d="M301.333 225.667L301.667 226.333L301.333 225.667z"/>
<path style="fill:#919191; stroke:none;" d="M376 225L376 226L381 226L376 225z"/>
<path style="fill:#414142; stroke:none;" d="M381.667 225.333L382.333 225.667L381.667 225.333z"/>
<path style="fill:#6d6c71; stroke:none;" d="M398.667 225.333L399.333 225.667L398.667 225.333z"/>
<path style="fill:#4c4c4c; stroke:none;" d="M331.333 226.667L331.667 227.333L331.333 226.667z"/>
<path style="fill:#989898; stroke:none;" d="M393 226L393 227L397 227L393 226z"/>
<path style="fill:#888888; stroke:none;" d="M407 226L407 227L410 227L407 226z"/>
<path style="fill:#838383; stroke:none;" d="M300.333 227.667L300.667 228.333L300.333 227.667z"/>
<path style="fill:#7e7e7e; stroke:none;" d="M405 227L406 228L405 227z"/>
<path style="fill:#878787; stroke:none;" d="M410 227L411 228L410 227z"/>
<path style="fill:#5c5c5c; stroke:none;" d="M288 228L289 229L288 228z"/>
<path style="fill:#343434; stroke:none;" d="M402 231L405 228L402 231z"/>
<path style="fill:#939393; stroke:none;" d="M411 228L412 229L411 228z"/>
<path style="fill:#9c9b9c; stroke:none;" d="M287 229L288 230L287 229z"/>
<path style="fill:#8c8b8c; stroke:none;" d="M332.333 229.667L332.667 230.333L332.333 229.667z"/>
<path style="fill:#9b9b9b; stroke:none;" d="M286 230L287 231L286 230z"/>
<path style="fill:#5f5f60; stroke:none;" d="M299 230L300 231L299 230z"/>
<path style="fill:#6f6f6f; stroke:none;" d="M412 230L413 231L412 230z"/>
<path style="fill:#606060; stroke:none;" d="M401 231L402 232L401 231z"/>
<path style="fill:#9e9e9e; stroke:none;" d="M333 232L334 233L333 232z"/>
<path style="fill:#828282; stroke:none;" d="M400 232L401 233L400 232z"/>
<path style="fill:#a4a4a4; stroke:none;" d="M284 233L285 234L284 233z"/>
<path style="fill:#a6a6a6; stroke:none;" d="M298.333 233.667L298.667 234.333L298.333 233.667z"/>
<path style="fill:#a2a2a2; stroke:none;" d="M399 233L400 234L399 233z"/>
<path style="fill:#545354; stroke:none;" d="M283.333 234.667L283.667 235.333L283.333 234.667z"/>
<path style="fill:#a5a5a5; stroke:none;" d="M324.333 234.667L324.667 235.333L324.333 234.667z"/>
<path style="fill:#7e7e7e; stroke:none;" d="M398 234L399 235L398 234z"/>
<path style="fill:#3d3d3d; stroke:none;" d="M335.333 235.667L335.667 236.333L335.333 235.667z"/>
<path style="fill:#818181; stroke:none;" d="M397 235L398 236L397 235z"/>
<path style="fill:#474747; stroke:none;" d="M282.333 236.667L282.667 237.333L282.333 236.667z"/>
<path style="fill:#3b3b3b; stroke:none;" d="M395.667 236.333L396.333 236.667L395.667 236.333z"/>
<path style="fill:#555555; stroke:none;" d="M297.333 237.667L297.667 238.333L297.333 237.667z"/>
<path style="fill:#8d8d8d; stroke:none;" d="M336 237L337 238L336 237z"/>
<path style="fill:#666667; stroke:none;" d="M394 237L395 238L394 237z"/>
<path style="fill:#5a5a5a; stroke:none;" d="M412 237L413 238L412 237z"/>
<path style="fill:#949494; stroke:none;" d="M337 238L338 239L337 238M392 238L393 239L392 238z"/>
<path style="fill:#a4a4a4; stroke:none;" d="M281 239L282 240L281 239z"/>
<path style="fill:#989898; stroke:none;" d="M326 239L327 240L326 239z"/>
<path style="fill:#8a8a8a; stroke:none;" d="M338 239L339 240L338 239z"/>
<path style="fill:#454545; stroke:none;" d="M390.667 239.333L391.333 239.667L390.667 239.333z"/>
<path style="fill:#919191; stroke:none;" d="M411 239L412 240L411 239z"/>
<path style="fill:#7e7e7e; stroke:none;" d="M327 240L328 241L327 240z"/>
<path style="fill:#767676; stroke:none;" d="M339 240L340 241L339 240z"/>
<path style="fill:#474747; stroke:none;" d="M388.667 240.333L389.333 240.667L388.667 240.333z"/>
<path style="fill:#565656; stroke:none;" d="M328 241L329 242L328 241z"/>
<path style="fill:#616161; stroke:none;" d="M341 241L342 242L341 241z"/>
<path style="fill:#9c9c9c; stroke:none;" d="M386 241L387 242L386 241z"/>
<path style="fill:#6f6f6f; stroke:none;" d="M384 242L385 243L384 242z"/>
<path style="fill:#888888; stroke:none;" d="M344 243L345 244L344 243z"/>
<path style="fill:#3b3b3b; stroke:none;" d="M381.667 243.333L382.333 243.667L381.667 243.333z"/>
<path style="fill:#818181; stroke:none;" d="M407 243L408 244L407 243M295 244L296 245L295 244z"/>
<path style="fill:#767676; stroke:none;" d="M331 244L332 245L331 244z"/>
<path style="fill:#989898; stroke:none;" d="M406 244L407 245L406 244z"/>
<path style="fill:#a5a5a5; stroke:none;" d="M332 245L333 246L332 245z"/>
<path style="fill:#373737; stroke:none;" d="M282 246L285 249L282 246z"/>
<path style="fill:#7c7c7c; stroke:none;" d="M294 246L295 247L294 246z"/>
<path style="fill:#484848; stroke:none;" d="M333.667 246.333L334.333 246.667L333.667 246.333z"/>
<path style="fill:#a2a2a2; stroke:none;" d="M353 246L353 247L356 247L353 246z"/>
<path style="fill:#a0a0a0; stroke:none;" d="M367 246L367 247L371 247L367 246z"/>
<path style="fill:#6d6d6d; stroke:none;" d="M403 246L404 247L403 246z"/>
<path style="fill:#a1a1a1; stroke:none;" d="M401 247L402 248L401 247z"/>
<path style="fill:#949494; stroke:none;" d="M293 248L294 249L293 248z"/>
<path style="fill:#969696; stroke:none;" d="M337 248L338 249L337 248z"/>
<path style="fill:#424242; stroke:none;" d="M398.667 248.333L399.333 248.667L398.667 248.333z"/>
<path style="fill:#9e9e9e; stroke:none;" d="M285 249L286 250L285 249z"/>
<path style="fill:#636363; stroke:none;" d="M292 249L293 250L292 249z"/>
<path style="fill:#606060; stroke:none;" d="M287.667 250.333L288.333 250.667L287.667 250.333z"/>
<path style="fill:#696969; stroke:none;" d="M291 250L292 251L291 250z"/>
<path style="fill:#595959; stroke:none;" d="M342.667 250.333L343.333 250.667L342.667 250.333z"/>
<path style="fill:#454445; stroke:none;" d="M391 250L391 251L394 251L391 250z"/>
<path style="fill:#9c9c9c; stroke:none;" d="M346 251L347 252L346 251z"/>
<path style="fill:#a0a0a0; stroke:none;" d="M387 251L387 252L390 252L387 251z"/>
<path style="fill:#979797; stroke:none;" d="M357.667 253.333L358.333 253.667L357.667 253.333z"/>
<path style="fill:#434343; stroke:none;" d="M359 253L359 254L363 254L359 253z"/>
<path style="fill:#424242; stroke:none;" d="M364 253L364 254L368 254L364 253z"/>
<path style="fill:#464646; stroke:none;" d="M369 253L369 254L373 254L369 253z"/>
<path style="fill:#939393; stroke:none;" d="M373.667 253.333L374.333 253.667L373.667 253.333z"/>
</svg>
